<?xml version="1.0" encoding="UTF-8" standalone="no"?>
<!-- Created with Inkscape (http://www.inkscape.org/) -->

<svg
   version="1.1"
   id="svg1"
   width="2400"
   height="858"
   viewBox="0 0 2400 858"
   sodipodi:docname="imagologo.svg"
   inkscape:version="1.4 (86a8ad7, 2024-10-11)"
   xmlns:inkscape="http://www.inkscape.org/namespaces/inkscape"
   xmlns:sodipodi="http://sodipodi.sourceforge.net/DTD/sodipodi-0.dtd"
   xmlns="http://www.w3.org/2000/svg"
   xmlns:svg="http://www.w3.org/2000/svg">
  <defs
     id="defs1" />
  <sodipodi:namedview
     id="namedview1"
     pagecolor="#ffffff"
     bordercolor="#000000"
     borderopacity="0.25"
     inkscape:showpageshadow="2"
     inkscape:pageopacity="0.0"
     inkscape:pagecheckerboard="0"
     inkscape:deskcolor="#d1d1d1"
     inkscape:zoom="0.31998186"
     inkscape:cx="1321.9499"
     inkscape:cy="401.58526"
     inkscape:window-width="1920"
     inkscape:window-height="1094"
     inkscape:window-x="-11"
     inkscape:window-y="-11"
     inkscape:window-maximized="1"
     inkscape:current-layer="g1"
     showguides="true" />
  <g
     inkscape:groupmode="layer"
     inkscape:label="Image"
     id="g1">
    <g
       id="g2"
       transform="matrix(1.220999,0,0,1.2257831,518.85411,-115.17191)">
      <path
         style="fill:#aa8800;stroke-width:1.52437"
         d="m -178.61634,730.05417 c -59.28655,-5.2281 -111.74274,-20.76182 -145.4752,-43.07917 -11.43569,-7.56587 -20.38432,-15.66925 -15.61597,-14.14102 1.80816,0.57952 9.10561,2.91519 16.21653,5.19044 44.68594,14.29782 106.67626,23.37925 169.53145,24.83596 77.105956,1.78697 138.801082,-6.89052 212.048575,-29.82492 5.724303,-1.79233 -12.609253,11.91866 -26.300596,19.66925 -18.446329,10.44237 -34.3547728,17.02345 -56.511323,23.3779 -45.425833,13.02803 -104.142716,18.35877 -153.893466,13.97156 z m 373.04227,-14.11251 c -2.76587,-0.6912 -7.90963,-3.39833 -11.43062,-6.01584 l -6.40176,-4.75913 4.03358,-4.38084 c 4.24267,-4.60795 7.20067,-5.57857 9.07069,-2.97641 1.85959,2.58763 14.32166,6.85687 20.11224,6.89001 2.98318,0.0172 7.51669,-0.89964 10.07448,-2.03714 12.49209,-5.5555 6.66485,-16.51532 -11.208,-21.0799 -19.85834,-5.07166 -28.10781,-11.904 -28.11917,-23.2888 -0.009,-8.42146 4.1825,-15.30099 12.04816,-19.77751 9.3611,-5.32758 24.61149,-5.26348 36.73204,0.15438 4.68246,2.09306 8.98773,4.46539 9.56732,5.27187 0.96113,1.33743 -5.01272,11.31032 -6.77499,11.31032 -0.41494,0 -2.94149,-1.3906 -5.61459,-3.09024 -3.2841,-2.08809 -8.00027,-3.28554 -14.5433,-3.69256 -8.22283,-0.51152 -10.20664,-0.15209 -13.1549,2.3834 -7.72087,6.63992 -2.20745,13.86823 13.63604,17.87738 25.60096,6.47821 34.83111,19.6714 25.21969,36.0479 -5.19788,8.85642 -13.56068,12.66039 -27.53346,12.52407 -5.87654,-0.0574 -12.94759,-0.66977 -15.71345,-1.36096 z m 188.72208,0.37018 -6.98608,-0.43468 v -40.20782 -40.2078 h 22.2566 c 23.98235,0 30.16442,1.41339 38.04309,8.69774 11.41046,10.54974 8.66782,30.56158 -5.25109,38.31497 -3.13185,1.74457 -5.70345,3.5002 -5.71463,3.90141 -0.0127,0.40118 4.33176,7.20777 9.65102,15.12571 5.31926,7.91795 9.42519,14.60797 9.12431,14.86673 -0.30088,0.25876 -4.39959,0.13176 -9.10822,-0.28237 l -8.56121,-0.75283 -8.37112,-13.05253 -8.37111,-13.05252 -9.39428,-0.0237 -9.39426,-0.0237 -0.46848,13.78309 -0.46843,13.78312 z m 41.64906,-45.94124 c 4.24499,-4.24534 5.14922,-10.57525 2.18995,-15.33056 -2.70347,-4.34422 -11.6681,-6.85565 -24.47169,-6.85565 h -11.55932 v 13.57037 13.57036 l 14.93751,-0.49407 c 13.99694,-0.46296 15.18726,-0.74382 18.90355,-4.46045 z m 67.3451,12.86646 c -8.03052,-18.8902 -15.94906,-37.36751 -17.59677,-41.06068 l -2.99584,-6.71484 8.6059,0.007 8.60591,0.007 12.31349,30.98898 c 6.77241,17.04392 12.6113,30.73286 12.97525,30.41984 0.36397,-0.313 4.25242,-9.64889 8.64099,-20.74638 4.38855,-11.09751 9.90522,-24.78934 12.25927,-30.42627 l 4.28005,-10.24897 h 8.05216 c 4.42869,0 8.03451,0.47709 8.0129,1.06023 -0.0216,0.58312 -7.64845,18.87226 -16.94851,40.6425 l -16.90923,39.58227 -7.34732,0.41819 -7.3473,0.41819 z m 176.61392,31.96848 c -7.49638,-2.7847 -17.46972,-11.13286 -21.80296,-18.25013 -4.78742,-7.86326 -5.92795,-27.37427 -2.16908,-37.10679 3.34126,-8.65118 12.22891,-17.81339 21.27204,-21.92918 10.40112,-4.73386 28.90554,-4.45947 38.86533,0.5763 4.06946,2.05756 8.62522,4.9202 10.12392,6.36143 2.56053,2.46234 2.44464,2.90721 -1.92147,7.37545 l -4.64634,4.75505 -6.08585,-3.99202 c -4.84705,-3.17944 -8.22537,-4.1092 -16.59646,-4.56759 l -10.5106,-0.57558 -7.1845,6.17865 c -20.79185,17.88094 -9.44538,50.82311 17.45198,50.66832 6.28781,-0.0362 17.52906,-4.11935 20.85447,-7.57495 2.14026,-2.2241 2.65087,-2.11781 6.98608,1.4541 2.57239,2.11946 4.67707,4.61327 4.67707,5.54177 0,2.17541 -9.87014,8.64832 -17.20763,11.28489 -7.36111,2.64506 -24.73884,2.53697 -32.106,-0.19972 z m 191.22374,-1.31775 c -4.57596,-1.96106 -9.6705,-4.849 -11.32133,-6.41768 -2.92789,-2.78235 -2.87831,-2.95786 2.0298,-7.17879 l 5.03113,-4.3267 6.43295,3.66116 c 11.91885,6.78323 28.14361,6.21385 32.03141,-1.1241 4.25698,-8.03521 -1.3846,-12.49745 -24.99395,-19.76795 -20.89329,-6.43417 -26.20755,-25.62499 -10.401,-37.56032 7.07485,-5.34214 16.42369,-7.74376 25.55838,-6.56571 8.08963,1.04329 24.40606,8.48882 24.39376,11.1314 0,0.95617 -1.7406,3.60049 -3.858,5.87628 l -3.84988,4.13779 -5.4864,-3.35964 c -7.90769,-4.84255 -22.89912,-5.6759 -27.70811,-1.54026 -7.56842,6.50887 -1.7264,13.62098 15.16981,18.46759 21.12124,6.05858 27.95204,12.54118 26.98126,25.60652 -1.08107,14.55154 -12.14845,22.526 -31.26246,22.526 -7.85204,0 -12.48214,-0.88062 -18.74737,-3.56559 z m 157.64977,0.58075 c -33.06596,-14.07581 -32.92244,-61.73508 0.2302,-76.42434 13.3837,-5.93016 35.9384,-4.19086 46.4456,3.58169 l 4.4434,3.28698 -4.6162,4.97533 -4.6163,4.9753 -6.7555,-3.32252 c -9.2448,-4.54684 -22.9831,-4.62564 -30.6607,-0.17585 -17.3836,10.07513 -18.2049,38.9399 -1.4007,49.23022 7.4226,4.54537 18.8296,5.16782 28.3478,1.5469 7.641,-2.90671 7.6429,-2.90902 7.6429,-10.05514 v -7.14774 h -10.6846 -10.6848 v -6.36143 -6.36145 h 18.0818 18.0816 v 16.14686 16.14683 l -6.5626,4.83098 c -8.0492,5.9251 -16.0837,8.11255 -29.7915,8.1111 -7.3643,-7.9e-4 -12.5835,-0.89064 -17.5004,-2.98372 z m 91.6616,-38.35431 v -40.65269 h 22.2566 c 24.3999,0 31.4116,1.6905 38.3145,9.23762 10.9267,11.9463 7.0449,32.53827 -7.3104,38.77989 -2.623,1.14043 -4.9775,2.16794 -5.2326,2.28338 -0.2548,0.11551 3.6529,6.34148 8.6841,13.8356 12.3286,18.36416 12.1726,17.17966 2.236,16.96632 l -8.4861,-0.18224 -8.9728,-13.60088 -8.9727,-13.6009 h -8.8615 -8.861 v 13.28736 13.28733 l -7.3971,0.50595 -7.397,0.50595 z m 44.3271,-3.16632 c 6.359,-2.82802 9.3942,-10.54311 6.5065,-16.53861 -2.7713,-5.75374 -10.1262,-8.22491 -24.4801,-8.22491 h -11.5594 v 13.42972 13.42969 h 12.4101 c 7.7513,0 14.1791,-0.78678 17.1229,-2.09589 z m 82.2444,42.25763 c -7.4184,-2.75573 -17.3951,-11.06244 -21.9193,-18.25013 -3.0064,-4.77621 -3.5593,-7.96039 -3.5593,-20.49796 0,-13.83354 0.3355,-15.36887 4.9313,-22.56816 17.7197,-27.75721 61.4448,-25.76997 76.6552,3.48385 4.2964,8.26281 5.1462,24.62001 1.7782,34.22163 -3.1005,8.83887 -11.5311,17.41871 -21.5295,21.91063 -7.1104,3.19458 -10.8691,3.93741 -19.6954,3.89264 -5.9992,-0.0304 -13.4968,-1.01706 -16.6612,-2.1925 z m 26.8412,-12.4033 c 11.9446,-4.29201 18.4569,-15.70044 17.1229,-29.99512 -1.4773,-15.82582 -11.3114,-24.62273 -27.5262,-24.62273 -14.9105,0 -25.0219,8.5471 -27.3433,23.11352 -3.5302,22.14733 16.7295,39.05639 37.7466,31.50433 z m 88.6189,11.74218 c -15.3953,-6.71644 -18.4765,-15.34494 -18.4765,-51.74133 v -27.34155 h 7.397 7.3971 v 26.55985 c 0,24.73365 0.2542,26.99323 3.6985,32.86261 4.0763,6.94658 9.1018,9.79399 17.3414,9.82567 7.5208,0.0288 14.5369,-3.42597 17.949,-8.83842 2.4021,-3.80997 2.9782,-9.21595 3.464,-32.49009 l 0.5829,-27.91962 h 7.392 7.3922 l -0.5547,29.33328 c -0.5294,27.99584 -0.7421,29.65229 -4.6641,36.32933 -2.2603,3.84785 -6.9491,8.93484 -10.4194,11.30443 -5.5962,3.82102 -7.7346,4.35716 -18.9035,4.7395 -10.3133,0.35307 -13.8617,-0.12199 -19.5959,-2.62366 z m 100.2871,1.76742 -6.9861,-0.43468 v -40.20782 -40.2078 h 20.0284 c 23.5148,0 31.6616,2.39465 38.5348,11.32702 4.9391,6.4184 6.8194,18.52906 4.0126,25.84299 -4.8029,12.51564 -15.2744,17.88313 -34.9828,17.93138 l -12.68,0.0312 -0.4704,13.0763 -0.4704,13.07629 z m 36.9794,-43.09446 c 6.349,-5.46007 6.4145,-14.86287 0.1415,-20.25791 -3.7766,-3.24781 -6.1146,-3.86655 -16.849,-4.45899 l -12.4638,-0.68789 v 15.18377 15.18377 l 12.3225,-0.53516 c 10.8211,-0.46994 12.8744,-1.00948 16.8488,-4.42759 z m -1211.05463,2.53325 v -40.28909 h 29.58819 29.58816 v 5.65459 c 0,3.11004 -0.18493,6.02418 -0.41094,6.47586 -0.22603,0.45167 -10.02711,0.92877 -21.78018,1.06023 l -21.36923,0.23901 -0.48298,10.24899 -0.48296,10.24897 h 20.70942 20.70942 l -0.50102,6.71484 -0.501,6.71486 -19.72544,0.22013 -19.72544,0.2201 -0.48298,10.02887 -0.48296,10.02885 h 23.08505 23.08503 v 6.36145 6.36143 h -30.41008 -30.41006 z m 312.31962,0 v -40.28909 h 7.39705 7.39703 v 40.28909 40.28909 h -7.39703 -7.39705 z m 164.37877,0 v -40.28909 h 29.58821 29.58807 v 6.71484 6.71485 l -22.1939,-0.42992 -22.19484,-0.42991 v 10.6789 10.67889 h 19.72538 19.72553 v 7.15138 7.1514 l -19.72861,-0.43653 -19.7286,-0.43655 v 10.24898 10.24897 h 23.01295 23.01308 v 6.36145 6.36143 H 784.63027 754.2202 Z m -952.57487,11.92173 c -72.35997,-6.22826 -133.68768,-20.84024 -168.80223,-40.21892 -14.8635,-8.20273 -20.1814,-12.40995 -25.50899,-20.18128 -3.44877,-5.03069 -4.03494,-7.37113 -3.42647,-13.68115 0.89921,-9.32528 6.09368,-15.7241 18.52856,-22.82449 8.0871,-4.61779 30.55998,-13.43609 31.8254,-12.4882 0.30643,0.22954 -2.38104,2.70014 -5.97212,5.49027 -3.5911,2.79011 -7.42712,6.93709 -8.52451,9.21551 -11.1747,23.20111 61.56663,47.23332 163.10669,53.88701 33.32516,2.18373 111.173422,0.991 139.317528,-2.1345 73.853552,-8.20169 121.838153,-22.93549 132.513094,-40.68846 3.861878,-6.42249 1.533513,-12.09444 -8.180149,-19.92713 l -8.445948,-6.81045 9.040838,2.98772 c 34.661237,11.45449 49.387777,25.04013 44.402377,40.96243 -7.44015,23.76231 -69.662454,50.13904 -143.303949,60.74816 -40.616433,5.85139 -61.18655,7.17895 -108.205571,6.98341 -24.86783,-0.10344 -51.13187,-0.69739 -58.36455,-1.31993 z"
         id="path1"
         sodipodi:nodetypes="ssssssssssscsssssssssssssssssccccssscsssccccccccssscccsscscccsssscsssccccssssssscsscsssssssssscssssscscssssssssscccssssscccccccccsssccssssssccccccccccssscccsssssssssssssssssscccssssscccsssssccccssssccccssscccssccccsssccccccccccccccccccccccccccccccccccccccccccccccccccccsssssssssssscsssss" />
      <path
         d="m -320.96836,599.95412 c -1.13409,-0.39883 -2.05472,-3.12095 -2.05472,-6.07544 v -5.35289 l 10.23323,-1.7314 c 18.31886,-3.09945 29.04237,-9.81736 36.86624,-23.09544 2.31743,-3.93293 10.70949,-23.09879 18.64902,-42.5908 7.93955,-19.492 18.66665,-45.61831 23.83798,-58.05845 8.57627,-20.631 9.32393,-23.36372 8.50919,-31.10035 -1.3165,-12.50088 1.57671,-36.58442 6.25531,-52.07037 7.99197,-26.45297 21.7409,-49.20434 53.58011,-88.66294 20.42851,-25.31722 29.4572,-39.17765 34.13033,-52.39536 8.88421,-25.12852 4.63475,-49.62027 -11.806,-68.04361 -3.29573,-3.69318 -5.60267,-6.71486 -5.12655,-6.71486 0.47613,0 4.72453,1.67941 9.44092,3.73203 20.05997,8.73031 39.260368,32.50482 44.936165,55.64138 5.375537,21.91258 0.77681,50.96877 -12.306095,77.75371 l -4.48954,9.19153 49.487436,122.27812 c 27.218097,67.25298 51.9596074,126.2657 54.9811188,131.13939 8.8006739,14.19544 18.4427162,20.13977 38.7011132,23.85919 5.57456,1.02349 6.655763,1.81181 7.104879,5.18023 1.102198,8.26688 3.22326,8.04302 -76.210798,8.04302 -40.047051,0 -73.982869,-0.38613 -75.412939,-0.85808 -1.71418,-0.56569 -2.60013,-2.61715 -2.60013,-6.02078 v -5.16272 l 12.63849,-3.52137 c 24.142236,-6.72656 25.034051,-13.568 7.645774,-58.6538 l -11.449294,-29.6867 -55.27358,-0.37211 -55.27358,-0.37211 -8.28232,21.72014 c -19.782,51.87773 -18.12097,63.78754 9.60955,68.90206 l 8.50677,1.56896 -0.49791,5.87484 -0.49789,5.87485 -55.88877,0.25136 c -30.73882,0.13826 -56.8134,-0.0738 -57.94351,-0.47123 z m 205.0625,-128.13535 c 0,-0.23086 -5.23717,-13.43084 -11.63812,-29.3333 -13.41982,-33.34005 -22.65283,-58.03019 -27.72897,-74.15048 -4.98914,-15.84401 -5.18591,-16.19684 -6.7015,-12.01604 -0.70462,1.94377 -5.74214,14.66663 -11.19448,28.27304 -5.45234,13.6064 -14.80314,38.09793 -20.77955,54.42562 -5.97639,16.32768 -11.18036,30.48187 -11.56436,31.45377 -0.54735,1.38534 9.05585,1.76706 44.45439,1.76706 24.83392,0 45.15259,-0.18887 45.15259,-0.41967 z m 641.0771,100.17954 c -33.1095,-6.03965 -55.04048,-19.72161 -68.1349,-42.50694 -12.50927,-21.76711 -13.54873,-31.21309 -13.80928,-125.48967 -0.16389,-59.29241 -0.57914,-70.99699 -2.64067,-74.42538 -2.66453,-4.43127 -12.80635,-9.25568 -22.67229,-10.78508 -5.8799,-0.91149 -6.1642,-1.20994 -6.1642,-6.47093 v -5.51538 l 57.94351,0.37151 57.94351,0.37149 v 4.85238 c 0,4.76692 -0.19735,4.90386 -11.20372,7.77509 -13.6193,3.55285 -18.68622,7.43565 -20.055,15.36813 -0.56297,3.26263 -0.75105,40.60189 -0.41799,82.97611 0.58454,74.36304 0.73242,77.43761 4.24949,88.3533 9.7189,30.16382 33.87861,45.81764 68.31477,44.26325 33.13809,-1.4958 56.65148,-21.43109 61.80903,-52.40337 1.36084,-8.17221 1.77918,-34.86633 1.40108,-89.40191 -0.48542,-70.01717 -0.81748,-78.18806 -3.33815,-82.14614 -2.94137,-4.61861 -7.66902,-6.84086 -18.57014,-8.72898 -6.14687,-1.06466 -6.57514,-1.457 -6.57514,-6.02335 v -4.88451 h 41.91657 41.91658 l 0.53713,3.25852 c 0.75363,4.57203 -2.01503,6.84669 -9.60387,7.8903 -3.76951,0.51837 -8.80386,2.63888 -11.88644,5.00662 l -5.34742,4.1074 -1.03245,83.16963 c -1.09458,88.17555 -1.45908,92.40548 -9.55986,110.94201 -4.81921,11.02748 -14.48562,23.4516 -23.63489,30.37759 -9.56192,7.23836 -26.76135,15.08681 -39.74324,18.13561 -13.60982,3.1963 -47.91852,4.06606 -61.64202,1.5627 z m 823.47956,-0.7222 c -62.877,-11.41163 -103.2299,-53.83932 -110.0458,-115.70423 -7.9727,-72.36355 38.2608,-136.00513 110.1037,-151.56072 54.4238,-11.78399 109.8192,4.69233 143.4134,42.6557 24.469,27.65141 34.5618,54.04163 34.7789,90.9371 0.1838,31.25372 -6.2138,52.9865 -22.6888,77.07399 -30.9469,45.24625 -93.2374,67.90944 -155.5614,56.59816 z m 71.2367,-20.91733 c 34.5381,-13.99438 53.727,-50.5566 53.7446,-102.40355 0.016,-48.30433 -20.9876,-96.104 -50.142,-114.10975 -14.6379,-9.04046 -24.7208,-12.00383 -42.9252,-12.61577 -26.3843,-0.88688 -41.8454,4.13219 -58.011,18.83204 -29.2853,26.62971 -39.7259,86.95476 -23.8684,137.91274 9.6137,30.89383 32.9817,61.63289 53.8797,70.8747 12.8749,5.69361 19.261,6.76684 38.0602,6.39622 16.4676,-0.32464 19.0798,-0.76088 29.2621,-4.88663 z m -496.91972,19.28321 c -13.03694,-2.1896 -27.06774,-9.1862 -36.61346,-18.25764 -10.36626,-9.85138 -20.02407,-25.31118 -40.61191,-65.00939 -8.26603,-15.93893 -16.11018,-30.4112 -17.43148,-32.16058 -2.17974,-2.88591 -3.69399,-3.18073 -16.33665,-3.18073 h -13.93433 v 45.28229 c 0,57.14521 -0.44275,55.92849 21.75505,59.77545 10.27047,1.77995 10.30021,1.79932 10.81024,7.04855 l 0.5115,5.2637 -57.22209,-0.37184 -57.22218,-0.37182 -0.50461,-4.47356 c -0.5453,-4.8343 -0.13511,-5.06875 11.95432,-6.83341 3.5851,-0.52331 8.47392,-1.82114 10.8641,-2.88409 9.04499,-4.02253 8.91823,-2.36492 8.91823,-116.57179 0,-97.23434 -0.2187,-105.66068 -2.84817,-109.79373 -2.83381,-4.45448 -5.39749,-5.56437 -20.67332,-8.95061 -6.66558,-1.47756 -7.05357,-1.8368 -6.57516,-6.08754 l 0.50841,-4.51732 66.57344,-1.00539 c 72.81006,-1.09958 79.74508,-0.62643 97.66151,6.66279 19.39573,7.89094 32.35711,20.11233 40.47716,38.16582 5.17248,11.50031 5.65704,36.98119 0.92729,48.77101 -6.77476,16.88729 -21.97931,31.52453 -41.19894,39.66157 l -10.34306,4.3791 9.04037,14.38122 c 22.82457,36.30832 44.20178,68.92184 50.91632,77.679 9.04545,11.79691 18.60157,18.24941 31.71318,21.41328 9.76329,2.35591 10.01977,2.54066 9.52658,6.86363 -0.38212,3.35049 -1.51695,4.6822 -4.61615,5.41744 -5.83683,1.38463 -37.2224,1.18318 -46.02619,-0.29541 z m -99.62646,-134.2092 c 21.91425,-2.7242 36.44213,-11.50627 44.46367,-26.87832 7.64627,-14.65285 8.15365,-43.05993 1.06029,-59.35364 -6.91993,-15.89481 -20.09863,-24.29969 -42.31506,-26.98699 -8.1927,-0.99098 -15.59144,-1.09812 -20.29128,-0.29379 l -7.39713,1.26593 -0.82186,56.14953 c -0.53815,36.76718 -0.25447,56.35472 0.82186,56.74396 2.92547,1.05796 12.88293,0.79491 24.47951,-0.64668 z M 149.04876,563.90381 c 0.47221,-4.11722 1.33404,-4.74144 9.94177,-7.20082 13.26878,-3.79112 20.52997,-11.26903 28.13463,-28.97429 3.25705,-7.58313 25.28849,-62.63831 48.95874,-122.34485 l 43.0368,-108.55733 10.68593,0.41292 10.68592,0.41293 3.14845,7.77509 c 3.16712,7.82114 38.44866,96.79908 71.18881,179.53386 9.6919,24.49153 19.40007,47.57346 21.57374,51.29318 5.52405,9.45311 15.24112,17.32528 25.10425,20.33791 7.69945,2.35176 8.32377,2.88864 8.32377,7.15841 v 4.61598 h -58.35446 -58.35446 v -4.71602 c 0,-4.5517 0.33856,-4.79695 9.71698,-7.03933 20.82556,-4.97941 21.43889,-11.73878 5.09044,-56.09996 l -8.07511,-21.91161 H 277.0023 234.14962 l -10.07379,26.15257 c -7.64157,19.83828 -10.11345,28.24986 -10.23806,34.83915 -0.20621,10.90527 2.45574,13.744 16.13744,17.20907 9.30615,2.35691 9.9989,2.82082 9.9989,6.69584 v 4.16347 l -45.72121,0.37593 -45.72119,0.37592 z M 302.36387,436.54372 C 297.693,424.68671 290.26147,403.99669 285.84936,390.5659 l -8.02201,-24.41965 -5.40988,13.81724 c -2.97545,7.59948 -10.85641,28.28951 -17.51324,45.97784 l -12.10332,32.16058 h 34.02772 34.02771 z m 698.50223,129.80542 c -2.28929,-5.13084 0.1103,-8.45448 7.4123,-10.26663 9.1028,-2.25915 12.5295,-4.92506 15.7765,-12.27432 2.2722,-5.14255 2.5231,-18.08025 2.1139,-109.03154 -0.4535,-100.8294 -0.541,-103.31013 -3.8075,-108.1444 -2.661,-3.93805 -5.2785,-5.49153 -12.827,-7.6121 -9.0768,-2.55001 -9.4623,-2.85327 -8.9851,-7.06826 l 0.4986,-4.40396 h 94.5178 94.5178 l 1.0371,26.15258 c 1.114,28.08148 0.6497,30.13446 -6.6498,29.40475 -3.4714,-0.34701 -4.6482,-1.59064 -6.423,-6.78631 -3.9905,-11.68318 -7.443,-17.16684 -13.7146,-21.78351 -9.822,-7.23025 -15.3362,-8.16443 -52.7405,-8.9348 l -34.1086,-0.70251 v 50.47972 50.47971 l 30.292,-0.48823 c 27.6593,-0.4458 30.6955,-0.74529 34.9305,-3.44553 7.1557,-4.56225 11.3812,-10.89662 13.5276,-20.27777 1.9273,-8.42596 2.0538,-8.57213 7.4151,-8.57213 h 5.4544 l 0.8456,10.95581 c 0.4649,6.02569 0.4493,24.825 -0.034,41.77623 l -0.88,30.82043 -5.0916,-0.42691 c -4.4885,-0.37632 -5.3416,-1.18048 -7.202,-6.78833 -3.6584,-11.02606 -9.0566,-18.81674 -15.1494,-21.86269 -5.0759,-2.53763 -9.1998,-2.93417 -35.032,-3.36851 l -29.2786,-0.49227 0.5123,47.14281 c 0.5786,53.22229 0.8654,54.57948 12.2067,57.79842 8.87,2.51758 61.5802,1.06179 71.0149,-1.96133 14.9451,-4.78884 23.9512,-13.68151 30.6901,-30.30337 3.5349,-8.7188 4.2618,-9.52738 8.9324,-9.93496 3.4904,-0.3046 5.4014,0.26653 6.0954,1.82162 1.3557,3.03814 -7.3096,55.98235 -9.5411,58.2945 -2.751,2.85074 -195.0517,2.65855 -196.3255,-0.19621 z"
         style="fill:#550000;stroke-width:1.52437"
         id="path1-8" />
    </g>
  </g>
</svg>
